<svg xmlns="http://www.w3.org/2000/svg" viewBox="0 0 1600 900" preserveAspectRatio="xMidYMid slice"><defs>
    <filter id="paper" x="-8%" y="-8%" width="116%" height="116%"><feTurbulence type="fractalNoise" baseFrequency=".006 .019" numOctaves="3" seed="57" result="n"/><feDisplacementMap in="SourceGraphic" in2="n" scale="1.6"/><feComponentTransfer><feFuncA type="linear" slope=".96"/></feComponentTransfer></filter>
    <filter id="grain" x="-5%" y="-5%" width="110%" height="110%"><feTurbulence type="fractalNoise" baseFrequency=".42" numOctaves="3" seed="64" result="noise"/><feColorMatrix in="noise" type="saturate" values="0"/><feComponentTransfer><feFuncA type="table" tableValues="0 .055"/></feComponentTransfer><feBlend mode="multiply" in2="SourceGraphic"/></filter>
    <filter id="shadow" x="-35%" y="-35%" width="180%" height="210%"><feDropShadow dx="8" dy="12" stdDeviation="9" flood-color="#263837" flood-opacity=".18"/></filter>
    <filter id="soft" x="-30%" y="-30%" width="160%" height="180%"><feDropShadow dx="3" dy="6" stdDeviation="4" flood-color="#263837" flood-opacity=".15"/></filter>
    <linearGradient id="wall" x1="0" y1="0" x2="1" y2="1"><stop stop-color="#fff8e8" stop-opacity=".32"/><stop offset=".48" stop-color="#fff8e8" stop-opacity="0"/><stop offset="1" stop-color="#273c3c" stop-opacity=".08"/></linearGradient>
    <linearGradient id="glass" x1="0" x2="1"><stop stop-color="#d8f0eb" stop-opacity=".82"/><stop offset=".5" stop-color="#a9ceca" stop-opacity=".46"/><stop offset="1" stop-color="#6f9994" stop-opacity=".7"/></linearGradient>
    <linearGradient id="wood" x1="0" y1="0" x2="0" y2="1"><stop stop-color="#b9845d"/><stop offset=".55" stop-color="#a87555"/><stop offset="1" stop-color="#8d604a"/></linearGradient>
    <pattern id="speck" width="31" height="27" patternUnits="userSpaceOnUse"><circle cx="5" cy="8" r="1.1" fill="#3b4c49" opacity=".06"/><circle cx="22" cy="19" r=".8" fill="#fff" opacity=".22"/></pattern>
    <radialGradient id="vignette"><stop offset=".68" stop-color="#000" stop-opacity="0"/><stop offset="1" stop-color="#243333" stop-opacity=".14"/></radialGradient>
    <linearGradient id="light" x1="0" y1="0" x2="1" y2="1"><stop stop-color="#fff4b9" stop-opacity=".56"/><stop offset="1" stop-color="#fff4b9" stop-opacity="0"/></linearGradient>
    </defs><rect width="1600" height="900" fill="#9da99b"/><g filter="url(#grain)"><rect x="0" y="0" width="1600" height="900" rx="0" fill="#8f9c91" stroke="none" stroke-width="0" opacity="1" /><path d="M0 620L1600 600L1600 900L0 900Z" fill="#786755" stroke="none" stroke-width="0" opacity="1" stroke-linecap="round" stroke-linejoin="round" /><path d="M0 0H1600V145Q1200 115 770 138T0 122Z" fill="#74877f" stroke="none" stroke-width="0" opacity="1" stroke-linecap="round" stroke-linejoin="round" /><rect x="90" y="150" width="1420" height="520" rx="18" fill="#6f817a" stroke="none" stroke-width="0" opacity="1" /><rect x="130" y="190" width="150" height="112" rx="8" fill="#a49272" stroke="#51625d" stroke-width="3" opacity="1" /><rect x="320" y="190" width="150" height="112" rx="8" fill="#a49272" stroke="#51625d" stroke-width="3" opacity="1" /><rect x="510" y="190" width="150" height="112" rx="8" fill="#a49272" stroke="#51625d" stroke-width="3" opacity="1" /><rect x="700" y="190" width="150" height="112" rx="8" fill="#a49272" stroke="#51625d" stroke-width="3" opacity="1" /><rect x="890" y="190" width="150" height="112" rx="8" fill="#a49272" stroke="#51625d" stroke-width="3" opacity="1" /><rect x="1080" y="190" width="150" height="112" rx="8" fill="#a49272" stroke="#51625d" stroke-width="3" opacity="1" /><rect x="1270" y="190" width="150" height="112" rx="8" fill="#a49272" stroke="#51625d" stroke-width="3" opacity="1" /><rect x="130" y="340" width="150" height="112" rx="8" fill="#a49272" stroke="#51625d" stroke-width="3" opacity="1" /><rect x="320" y="340" width="150" height="112" rx="8" fill="#a49272" stroke="#51625d" stroke-width="3" opacity="1" /><rect x="510" y="340" width="150" height="112" rx="8" fill="#a49272" stroke="#51625d" stroke-width="3" opacity="1" /><rect x="700" y="340" width="150" height="112" rx="8" fill="#a49272" stroke="#51625d" stroke-width="3" opacity="1" /><rect x="890" y="340" width="150" height="112" rx="8" fill="#a49272" stroke="#51625d" stroke-width="3" opacity="1" /><rect x="1080" y="340" width="150" height="112" rx="8" fill="#a49272" stroke="#51625d" stroke-width="3" opacity="1" /><rect x="1270" y="340" width="150" height="112" rx="8" fill="#a49272" stroke="#51625d" stroke-width="3" opacity="1" /><rect x="130" y="490" width="150" height="112" rx="8" fill="#a49272" stroke="#51625d" stroke-width="3" opacity="1" /><rect x="320" y="490" width="150" height="112" rx="8" fill="#a49272" stroke="#51625d" stroke-width="3" opacity="1" /><rect x="510" y="490" width="150" height="112" rx="8" fill="#a49272" stroke="#51625d" stroke-width="3" opacity="1" /><rect x="700" y="490" width="150" height="112" rx="8" fill="#a49272" stroke="#51625d" stroke-width="3" opacity="1" /><rect x="890" y="490" width="150" height="112" rx="8" fill="#a49272" stroke="#51625d" stroke-width="3" opacity="1" /><rect x="1080" y="490" width="150" height="112" rx="8" fill="#a49272" stroke="#51625d" stroke-width="3" opacity="1" /><rect x="1270" y="490" width="150" height="112" rx="8" fill="#a49272" stroke="#51625d" stroke-width="3" opacity="1" /><g filter="url(#soft)" transform="rotate(-2 240.0 105.0)"><rect x="110" y="70" width="260" height="70" rx="5" fill="#e4d19a" stroke="none" stroke-width="0" opacity="1" /><path d="M122 91 Q214.0 82 356 90" fill="none" stroke="#aa8d69" stroke-width="1.3" opacity="0.25" stroke-linecap="round" stroke-linejoin="round" /><text x="240.0" y="113.4" fill="#394e4c" font-family="KaiTi,STKaiti,serif" font-size="24" font-weight="800" text-anchor="middle" opacity="1" >失物招领处</text></g><g filter="url(#soft)" transform="rotate(2 1280.0 755.0)"><rect x="1140" y="710" width="280" height="90" rx="5" fill="#ead9a5" stroke="none" stroke-width="0" opacity="1" /><path d="M1152 731 Q1252.0 722 1406 730" fill="none" stroke="#aa8d69" stroke-width="1.3" opacity="0.25" stroke-linecap="round" stroke-linejoin="round" /><text x="1280.0" y="765.8" fill="#394e4c" font-family="KaiTi,STKaiti,serif" font-size="24" font-weight="800" text-anchor="middle" opacity="1" >分类：日期类
暂无标准流程</text></g><path d="M270 720Q210 620 155 720" fill="none" stroke="#4e615e" stroke-width="10" opacity="1" stroke-linecap="round" stroke-linejoin="round" /><rect x="208" y="720" width="20" height="115" rx="9" fill="#4e615e" stroke="none" stroke-width="0" opacity="1" /><rect x="515" y="720" width="100" height="60" rx="8" fill="#c5b27c" stroke="none" stroke-width="0" opacity="1" /><path d="M750 790Q820 700 890 790" fill="none" stroke="#4e615e" stroke-width="7" opacity="1" stroke-linecap="round" stroke-linejoin="round" /><rect x="1010" y="730" width="150" height="80" rx="4" fill="#d3c8a8" stroke="none" stroke-width="0" opacity="1" /></g><rect width="1600" height="900" fill="url(#speck)" opacity=".55" pointer-events="none"/><rect width="1600" height="900" fill="url(#vignette)" pointer-events="none"/></svg>