<svg xmlns="http://www.w3.org/2000/svg" viewBox="0 0 1600 900" preserveAspectRatio="xMidYMid slice"><defs>
    <filter id="paper" x="-8%" y="-8%" width="116%" height="116%"><feTurbulence type="fractalNoise" baseFrequency=".006 .019" numOctaves="3" seed="56" result="n"/><feDisplacementMap in="SourceGraphic" in2="n" scale="1.6"/><feComponentTransfer><feFuncA type="linear" slope=".96"/></feComponentTransfer></filter>
    <filter id="grain" x="-5%" y="-5%" width="110%" height="110%"><feTurbulence type="fractalNoise" baseFrequency=".42" numOctaves="3" seed="63" result="noise"/><feColorMatrix in="noise" type="saturate" values="0"/><feComponentTransfer><feFuncA type="table" tableValues="0 .055"/></feComponentTransfer><feBlend mode="multiply" in2="SourceGraphic"/></filter>
    <filter id="shadow" x="-35%" y="-35%" width="180%" height="210%"><feDropShadow dx="8" dy="12" stdDeviation="9" flood-color="#263837" flood-opacity=".18"/></filter>
    <filter id="soft" x="-30%" y="-30%" width="160%" height="180%"><feDropShadow dx="3" dy="6" stdDeviation="4" flood-color="#263837" flood-opacity=".15"/></filter>
    <linearGradient id="wall" x1="0" y1="0" x2="1" y2="1"><stop stop-color="#fff8e8" stop-opacity=".32"/><stop offset=".48" stop-color="#fff8e8" stop-opacity="0"/><stop offset="1" stop-color="#273c3c" stop-opacity=".08"/></linearGradient>
    <linearGradient id="glass" x1="0" x2="1"><stop stop-color="#d8f0eb" stop-opacity=".82"/><stop offset=".5" stop-color="#a9ceca" stop-opacity=".46"/><stop offset="1" stop-color="#6f9994" stop-opacity=".7"/></linearGradient>
    <linearGradient id="wood" x1="0" y1="0" x2="0" y2="1"><stop stop-color="#b9845d"/><stop offset=".55" stop-color="#a87555"/><stop offset="1" stop-color="#8d604a"/></linearGradient>
    <pattern id="speck" width="31" height="27" patternUnits="userSpaceOnUse"><circle cx="5" cy="8" r="1.1" fill="#3b4c49" opacity=".06"/><circle cx="22" cy="19" r=".8" fill="#fff" opacity=".22"/></pattern>
    <radialGradient id="vignette"><stop offset=".68" stop-color="#000" stop-opacity="0"/><stop offset="1" stop-color="#243333" stop-opacity=".14"/></radialGradient>
    <linearGradient id="light" x1="0" y1="0" x2="1" y2="1"><stop stop-color="#fff4b9" stop-opacity=".56"/><stop offset="1" stop-color="#fff4b9" stop-opacity="0"/></linearGradient>
    </defs><rect width="1600" height="900" fill="#b8d4c8"/><g filter="url(#grain)"><rect x="0" y="0" width="1600" height="510" rx="0" fill="#b6d2c7" stroke="none" stroke-width="0" opacity="1" /><path d="M0 510L1600 380L1600 900L0 900Z" fill="#b18c68" stroke="none" stroke-width="0" opacity="1" stroke-linecap="round" stroke-linejoin="round" /><path d="M0 660L1600 530" fill="none" stroke="#f0e4c8" stroke-width="8" opacity="0.5" stroke-linecap="round" stroke-linejoin="round" /><path d="M0 710L1600 580" fill="none" stroke="#69685b" stroke-width="7" opacity="0.48" stroke-linecap="round" stroke-linejoin="round" /><path d="M50 210L450 176L475 520L30 550Z" fill="#d3b489" stroke="none" stroke-width="0" opacity="1" stroke-linecap="round" stroke-linejoin="round" /><g filter="url(#soft)"><rect x="90" y="290" width="130" height="92" rx="7" fill="#425856" stroke="none" stroke-width="0" opacity="1" /><rect x="100" y="300" width="110" height="72" rx="2" fill="url(#glass)" stroke="none" stroke-width="0" opacity="1" /><rect x="152.0" y="300" width="6" height="72" rx="2" fill="#526764" stroke="none" stroke-width="0" opacity="1" /><rect x="100" y="333.0" width="110" height="6" rx="2" fill="#526764" stroke="none" stroke-width="0" opacity="1" /></g><g filter="url(#soft)"><rect x="265" y="270" width="130" height="92" rx="7" fill="#425856" stroke="none" stroke-width="0" opacity="1" /><rect x="275" y="280" width="110" height="72" rx="2" fill="url(#glass)" stroke="none" stroke-width="0" opacity="1" /><rect x="327.0" y="280" width="6" height="72" rx="2" fill="#526764" stroke="none" stroke-width="0" opacity="1" /><rect x="275" y="313.0" width="110" height="6" rx="2" fill="#526764" stroke="none" stroke-width="0" opacity="1" /></g><g filter="url(#soft)" transform="rotate(-3 178.0 251.0)"><rect x="88" y="225" width="180" height="52" rx="5" fill="#f3e3b8" stroke="none" stroke-width="0" opacity="1" /><path d="M100 246 Q160.0 237 254 245" fill="none" stroke="#aa8d69" stroke-width="1.3" opacity="0.25" stroke-linecap="round" stroke-linejoin="round" /><text x="178.0" y="257.24" fill="#394e4c" font-family="KaiTi,STKaiti,serif" font-size="18.0" font-weight="800" text-anchor="middle" opacity="1" >坡底停车点</text></g><path d="M1210 115L1560 80L1585 430L1180 465Z" fill="#94a68e" stroke="none" stroke-width="0" opacity="1" stroke-linecap="round" stroke-linejoin="round" /><g filter="url(#soft)"><rect x="1260" y="188" width="120" height="95" rx="7" fill="#425856" stroke="none" stroke-width="0" opacity="1" /><rect x="1270" y="198" width="100" height="75" rx="2" fill="url(#glass)" stroke="none" stroke-width="0" opacity="1" /><rect x="1317.0" y="198" width="6" height="75" rx="2" fill="#526764" stroke="none" stroke-width="0" opacity="1" /><rect x="1270" y="232.5" width="100" height="6" rx="2" fill="#526764" stroke="none" stroke-width="0" opacity="1" /></g><g filter="url(#soft)"><rect x="1410" y="165" width="120" height="95" rx="7" fill="#425856" stroke="none" stroke-width="0" opacity="1" /><rect x="1420" y="175" width="100" height="75" rx="2" fill="url(#glass)" stroke="none" stroke-width="0" opacity="1" /><rect x="1467.0" y="175" width="6" height="75" rx="2" fill="#526764" stroke="none" stroke-width="0" opacity="1" /><rect x="1420" y="209.5" width="100" height="6" rx="2" fill="#526764" stroke="none" stroke-width="0" opacity="1" /></g><circle cx="530" cy="580" r="31" fill="none" stroke="#4b5f5c" stroke-width="5" opacity="1"/><circle cx="598" cy="575" r="31" fill="none" stroke="#4b5f5c" stroke-width="5" opacity="1"/><path d="M530 580L558 538L598 575L548 576Z" fill="none" stroke="#4b5f5c" stroke-width="5" opacity="1" stroke-linecap="round" stroke-linejoin="round" /><circle cx="645" cy="571" r="31" fill="none" stroke="#4b5f5c" stroke-width="5" opacity="1"/><circle cx="713" cy="566" r="31" fill="none" stroke="#4b5f5c" stroke-width="5" opacity="1"/><path d="M645 571L673 529L713 566L663 567Z" fill="none" stroke="#4b5f5c" stroke-width="5" opacity="1" stroke-linecap="round" stroke-linejoin="round" /><circle cx="760" cy="562" r="31" fill="none" stroke="#4b5f5c" stroke-width="5" opacity="1"/><circle cx="828" cy="557" r="31" fill="none" stroke="#4b5f5c" stroke-width="5" opacity="1"/><path d="M760 562L788 520L828 557L778 558Z" fill="none" stroke="#4b5f5c" stroke-width="5" opacity="1" stroke-linecap="round" stroke-linejoin="round" /><circle cx="875" cy="553" r="31" fill="none" stroke="#4b5f5c" stroke-width="5" opacity="1"/><circle cx="943" cy="548" r="31" fill="none" stroke="#4b5f5c" stroke-width="5" opacity="1"/><path d="M875 553L903 511L943 548L893 549Z" fill="none" stroke="#4b5f5c" stroke-width="5" opacity="1" stroke-linecap="round" stroke-linejoin="round" /><circle cx="990" cy="544" r="31" fill="none" stroke="#4b5f5c" stroke-width="5" opacity="1"/><circle cx="1058" cy="539" r="31" fill="none" stroke="#4b5f5c" stroke-width="5" opacity="1"/><path d="M990 544L1018 502L1058 539L1008 540Z" fill="none" stroke="#4b5f5c" stroke-width="5" opacity="1" stroke-linecap="round" stroke-linejoin="round" /><circle cx="1105" cy="535" r="31" fill="none" stroke="#4b5f5c" stroke-width="5" opacity="1"/><circle cx="1173" cy="530" r="31" fill="none" stroke="#4b5f5c" stroke-width="5" opacity="1"/><path d="M1105 535L1133 493L1173 530L1123 531Z" fill="none" stroke="#4b5f5c" stroke-width="5" opacity="1" stroke-linecap="round" stroke-linejoin="round" /><g filter="url(#soft)" transform="rotate(4 1060.0 701.0)"><rect x="950" y="660" width="220" height="82" rx="5" fill="#e6cf87" stroke="none" stroke-width="0" opacity="1" /><path d="M962 681 Q1038.0 672 1156 680" fill="none" stroke="#aa8d69" stroke-width="1.3" opacity="0.25" stroke-linecap="round" stroke-linejoin="round" /><text x="1060.0" y="710.84" fill="#394e4c" font-family="KaiTi,STKaiti,serif" font-size="22.0" font-weight="800" text-anchor="middle" opacity="1" >今天不下坡
谢谢理解</text></g><g transform="translate(1400 570) scale(0.65)"><path d="M42 76 C20 38 30 6 48 0 C58 30 55 52 42 76Z" fill="#78967d"/><path d="M44 74 C62 28 94 25 102 37 C82 63 66 76 44 74Z" fill="#6b8a72"/><path d="M43 76 C34 45 8 37 0 49 C12 69 27 80 43 76Z" fill="#8aa282"/><rect x="18" y="72" width="55" height="46" rx="8" fill="#9f7659" stroke="none" stroke-width="0" opacity="1" /></g></g><rect width="1600" height="900" fill="url(#speck)" opacity=".55" pointer-events="none"/><rect width="1600" height="900" fill="url(#vignette)" pointer-events="none"/></svg>