<svg xmlns="http://www.w3.org/2000/svg" viewBox="0 0 1600 900" preserveAspectRatio="xMidYMid slice"><defs>
    <filter id="paper" x="-8%" y="-8%" width="116%" height="116%"><feTurbulence type="fractalNoise" baseFrequency=".006 .019" numOctaves="3" seed="55" result="n"/><feDisplacementMap in="SourceGraphic" in2="n" scale="1.6"/><feComponentTransfer><feFuncA type="linear" slope=".96"/></feComponentTransfer></filter>
    <filter id="grain" x="-5%" y="-5%" width="110%" height="110%"><feTurbulence type="fractalNoise" baseFrequency=".42" numOctaves="3" seed="62" result="noise"/><feColorMatrix in="noise" type="saturate" values="0"/><feComponentTransfer><feFuncA type="table" tableValues="0 .055"/></feComponentTransfer><feBlend mode="multiply" in2="SourceGraphic"/></filter>
    <filter id="shadow" x="-35%" y="-35%" width="180%" height="210%"><feDropShadow dx="8" dy="12" stdDeviation="9" flood-color="#263837" flood-opacity=".18"/></filter>
    <filter id="soft" x="-30%" y="-30%" width="160%" height="180%"><feDropShadow dx="3" dy="6" stdDeviation="4" flood-color="#263837" flood-opacity=".15"/></filter>
    <linearGradient id="wall" x1="0" y1="0" x2="1" y2="1"><stop stop-color="#fff8e8" stop-opacity=".32"/><stop offset=".48" stop-color="#fff8e8" stop-opacity="0"/><stop offset="1" stop-color="#273c3c" stop-opacity=".08"/></linearGradient>
    <linearGradient id="glass" x1="0" x2="1"><stop stop-color="#d8f0eb" stop-opacity=".82"/><stop offset=".5" stop-color="#a9ceca" stop-opacity=".46"/><stop offset="1" stop-color="#6f9994" stop-opacity=".7"/></linearGradient>
    <linearGradient id="wood" x1="0" y1="0" x2="0" y2="1"><stop stop-color="#b9845d"/><stop offset=".55" stop-color="#a87555"/><stop offset="1" stop-color="#8d604a"/></linearGradient>
    <pattern id="speck" width="31" height="27" patternUnits="userSpaceOnUse"><circle cx="5" cy="8" r="1.1" fill="#3b4c49" opacity=".06"/><circle cx="22" cy="19" r=".8" fill="#fff" opacity=".22"/></pattern>
    <radialGradient id="vignette"><stop offset=".68" stop-color="#000" stop-opacity="0"/><stop offset="1" stop-color="#243333" stop-opacity=".14"/></radialGradient>
    <linearGradient id="light" x1="0" y1="0" x2="1" y2="1"><stop stop-color="#fff4b9" stop-opacity=".56"/><stop offset="1" stop-color="#fff4b9" stop-opacity="0"/></linearGradient>
    </defs><rect width="1600" height="900" fill="#7b857e"/><g filter="url(#grain)"><rect x="0" y="0" width="1600" height="900" rx="0" fill="#707b75" stroke="none" stroke-width="0" opacity="1" /><path d="M0 0L420 0L520 900L0 900Z" fill="#68736e" stroke="none" stroke-width="0" opacity="1" stroke-linecap="round" stroke-linejoin="round" /><path d="M1180 0L1600 0L1600 900L1080 900Z" fill="#65716c" stroke="none" stroke-width="0" opacity="1" stroke-linecap="round" stroke-linejoin="round" /><rect x="420" y="75" width="760" height="760" rx="16" fill="#8e9a90" stroke="#344a49" stroke-width="5" opacity="1" /><rect x="483" y="130" width="640" height="650" rx="10" fill="#606d68" stroke="none" stroke-width="0" opacity="1" /><path d="M803 130V780" fill="none" stroke="#2f4544" stroke-width="8" opacity="1" stroke-linecap="round" stroke-linejoin="round" /><path d="M493 138L1113 138" fill="none" stroke="#c9c1a2" stroke-width="5" opacity="0.25" stroke-linecap="round" stroke-linejoin="round" /><rect x="70" y="180" width="150" height="500" rx="10" fill="#85928a" stroke="none" stroke-width="0" opacity="1" /><circle cx="145" cy="250" r="34" fill="#e3c86b" stroke="#53635f" stroke-width="3" opacity="1"/><circle cx="145" cy="360" r="34" fill="#93aa9d" stroke="#53635f" stroke-width="3" opacity="1"/><circle cx="145" cy="470" r="34" fill="#93aa9d" stroke="#53635f" stroke-width="3" opacity="1"/><rect x="1350" y="180" width="150" height="500" rx="10" fill="#85928a" stroke="none" stroke-width="0" opacity="1" /><circle cx="1425" cy="250" r="34" fill="#e3c86b" stroke="#53635f" stroke-width="3" opacity="1"/><circle cx="1425" cy="360" r="34" fill="#93aa9d" stroke="#53635f" stroke-width="3" opacity="1"/><circle cx="1425" cy="470" r="34" fill="#93aa9d" stroke="#53635f" stroke-width="3" opacity="1"/><rect x="660" y="25" width="280" height="76" rx="10" fill="#2e4544" stroke="none" stroke-width="0" opacity="1" /><text x="800" y="78" fill="#e2c764" font-family="KaiTi,STKaiti,serif" font-size="48" font-weight="900" text-anchor="middle" opacity="1" >6½</text><path d="M470 780L1130 780L1210 900L390 900Z" fill="#6d6960" stroke="none" stroke-width="0" opacity="1" stroke-linecap="round" stroke-linejoin="round" /><g filter="url(#soft)" transform="rotate(-3 182.5 763.0)"><rect x="60" y="720" width="245" height="86" rx="5" fill="#d8cfb0" stroke="none" stroke-width="0" opacity="1" /><path d="M72 741 Q158.0 732 291 740" fill="none" stroke="#aa8d69" stroke-width="1.3" opacity="0.25" stroke-linecap="round" stroke-linejoin="round" /><text x="182.5" y="773.32" fill="#394e4c" font-family="KaiTi,STKaiti,serif" font-size="24" font-weight="800" text-anchor="middle" opacity="1" >年检合格
未包含半层</text></g></g><rect width="1600" height="900" fill="url(#speck)" opacity=".55" pointer-events="none"/><rect width="1600" height="900" fill="url(#vignette)" pointer-events="none"/></svg>