<svg xmlns="http://www.w3.org/2000/svg" viewBox="0 0 1600 900" preserveAspectRatio="xMidYMid slice"><defs>
    <filter id="paper" x="-8%" y="-8%" width="116%" height="116%"><feTurbulence type="fractalNoise" baseFrequency=".006 .019" numOctaves="3" seed="63" result="n"/><feDisplacementMap in="SourceGraphic" in2="n" scale="1.6"/><feComponentTransfer><feFuncA type="linear" slope=".96"/></feComponentTransfer></filter>
    <filter id="grain" x="-5%" y="-5%" width="110%" height="110%"><feTurbulence type="fractalNoise" baseFrequency=".42" numOctaves="3" seed="70" result="noise"/><feColorMatrix in="noise" type="saturate" values="0"/><feComponentTransfer><feFuncA type="table" tableValues="0 .055"/></feComponentTransfer><feBlend mode="multiply" in2="SourceGraphic"/></filter>
    <filter id="shadow" x="-35%" y="-35%" width="180%" height="210%"><feDropShadow dx="8" dy="12" stdDeviation="9" flood-color="#263837" flood-opacity=".18"/></filter>
    <filter id="soft" x="-30%" y="-30%" width="160%" height="180%"><feDropShadow dx="3" dy="6" stdDeviation="4" flood-color="#263837" flood-opacity=".15"/></filter>
    <linearGradient id="wall" x1="0" y1="0" x2="1" y2="1"><stop stop-color="#fff8e8" stop-opacity=".32"/><stop offset=".48" stop-color="#fff8e8" stop-opacity="0"/><stop offset="1" stop-color="#273c3c" stop-opacity=".08"/></linearGradient>
    <linearGradient id="glass" x1="0" x2="1"><stop stop-color="#d8f0eb" stop-opacity=".82"/><stop offset=".5" stop-color="#a9ceca" stop-opacity=".46"/><stop offset="1" stop-color="#6f9994" stop-opacity=".7"/></linearGradient>
    <linearGradient id="wood" x1="0" y1="0" x2="0" y2="1"><stop stop-color="#b9845d"/><stop offset=".55" stop-color="#a87555"/><stop offset="1" stop-color="#8d604a"/></linearGradient>
    <pattern id="speck" width="31" height="27" patternUnits="userSpaceOnUse"><circle cx="5" cy="8" r="1.1" fill="#3b4c49" opacity=".06"/><circle cx="22" cy="19" r=".8" fill="#fff" opacity=".22"/></pattern>
    <radialGradient id="vignette"><stop offset=".68" stop-color="#000" stop-opacity="0"/><stop offset="1" stop-color="#243333" stop-opacity=".14"/></radialGradient>
    <linearGradient id="light" x1="0" y1="0" x2="1" y2="1"><stop stop-color="#fff4b9" stop-opacity=".56"/><stop offset="1" stop-color="#fff4b9" stop-opacity="0"/></linearGradient>
    </defs><rect width="1600" height="900" fill="#5f7771"/><g filter="url(#grain)"><rect x="0" y="0" width="1600" height="900" rx="0" fill="#586e69" stroke="none" stroke-width="0" opacity="1" /><path d="M0 0L1600 0L1600 155Q1250 118 800 140T0 120Z" fill="#3f5754" stroke="none" stroke-width="0" opacity="1" stroke-linecap="round" stroke-linejoin="round" /><path d="M165 145L1430 145L1570 900L30 900Z" fill="#75847b" stroke="none" stroke-width="0" opacity="1" stroke-linecap="round" stroke-linejoin="round" /><path d="M225 235L1370 235L1475 900L125 900Z" fill="#c6bca3" stroke="none" stroke-width="0" opacity="1" stroke-linecap="round" stroke-linejoin="round" /><rect x="260" y="200" width="370" height="250" rx="9" fill="url(#glass)" stroke="#435956" stroke-width="6" opacity="1" /><rect x="955" y="200" width="370" height="250" rx="9" fill="url(#glass)" stroke="#435956" stroke-width="6" opacity="1" /><path d="M800 170V860" fill="none" stroke="#4d625e" stroke-width="10" opacity="1" stroke-linecap="round" stroke-linejoin="round" /><rect x="630" y="80" width="340" height="78" rx="12" fill="#2d4745" stroke="none" stroke-width="0" opacity="1" /><text x="800" y="133" fill="#e5c865" font-family="KaiTi,STKaiti,serif" font-size="29" font-weight="900" text-anchor="middle" opacity="1" >下一站：——</text><path d="M290 140V220" fill="none" stroke="#3f5754" stroke-width="5" opacity="1" stroke-linecap="round" stroke-linejoin="round" /><path d="M266 220Q290 250 314 220Q290 282 266 220Z" fill="none" stroke="#eee2c4" stroke-width="6" opacity="1" stroke-linecap="round" stroke-linejoin="round" /><path d="M450 140V220" fill="none" stroke="#3f5754" stroke-width="5" opacity="1" stroke-linecap="round" stroke-linejoin="round" /><path d="M426 220Q450 250 474 220Q450 282 426 220Z" fill="none" stroke="#eee2c4" stroke-width="6" opacity="1" stroke-linecap="round" stroke-linejoin="round" /><path d="M610 140V220" fill="none" stroke="#3f5754" stroke-width="5" opacity="1" stroke-linecap="round" stroke-linejoin="round" /><path d="M586 220Q610 250 634 220Q610 282 586 220Z" fill="none" stroke="#eee2c4" stroke-width="6" opacity="1" stroke-linecap="round" stroke-linejoin="round" /><path d="M770 140V220" fill="none" stroke="#3f5754" stroke-width="5" opacity="1" stroke-linecap="round" stroke-linejoin="round" /><path d="M746 220Q770 250 794 220Q770 282 746 220Z" fill="none" stroke="#eee2c4" stroke-width="6" opacity="1" stroke-linecap="round" stroke-linejoin="round" /><path d="M930 140V220" fill="none" stroke="#3f5754" stroke-width="5" opacity="1" stroke-linecap="round" stroke-linejoin="round" /><path d="M906 220Q930 250 954 220Q930 282 906 220Z" fill="none" stroke="#eee2c4" stroke-width="6" opacity="1" stroke-linecap="round" stroke-linejoin="round" /><path d="M1090 140V220" fill="none" stroke="#3f5754" stroke-width="5" opacity="1" stroke-linecap="round" stroke-linejoin="round" /><path d="M1066 220Q1090 250 1114 220Q1090 282 1066 220Z" fill="none" stroke="#eee2c4" stroke-width="6" opacity="1" stroke-linecap="round" stroke-linejoin="round" /><path d="M1250 140V220" fill="none" stroke="#3f5754" stroke-width="5" opacity="1" stroke-linecap="round" stroke-linejoin="round" /><path d="M1226 220Q1250 250 1274 220Q1250 282 1226 220Z" fill="none" stroke="#eee2c4" stroke-width="6" opacity="1" stroke-linecap="round" stroke-linejoin="round" /><g filter="url(#soft)"><ellipse cx="1325" cy="639.4" rx="30.099999999999998" ry="6.3" fill="#273c39" opacity=".13"/><path d="M1312.4 592.5Q1297.0 606.5 1286.5 624.0" fill="none" stroke="#3f5552" stroke-width="7.0" opacity="1" stroke-linecap="round" stroke-linejoin="round" /><path d="M1337.6 592.5Q1353.0 606.5 1363.5 624.0" fill="none" stroke="#3f5552" stroke-width="7.0" opacity="1" stroke-linecap="round" stroke-linejoin="round" /><path d="M1299.8 538.6 Q1325 523.2 1350.2 538.6 Q1355.8 565.2 1344.6 600.9 Q1325 609.3 1305.4 600.9 Q1294.2 565.2 1299.8 538.6Z" fill="#6f887f" stroke="none" stroke-width="0" opacity="1" stroke-linecap="round" stroke-linejoin="round" /><path d="M1308.9 542.8Q1325 536.5 1341.1 542.8" fill="none" stroke="#ffffff" stroke-width="2.0999999999999996" opacity="0.13" stroke-linecap="round" stroke-linejoin="round" /><path d="M1303.3 555.4Q1289.3 570.8 1293.5 589.0" fill="none" stroke="#6f887f" stroke-width="8.399999999999999" opacity="1" stroke-linecap="round" stroke-linejoin="round" /><path d="M1346.7 555.4Q1360.7 570.8 1356.5 589.0" fill="none" stroke="#6f887f" stroke-width="8.399999999999999" opacity="1" stroke-linecap="round" stroke-linejoin="round" /><circle cx="1292.1" cy="589.7" r="4.199999999999999" fill="#cca27e" stroke="none" stroke-width="0" opacity="1"/><circle cx="1357.9" cy="589.7" r="4.199999999999999" fill="#cca27e" stroke="none" stroke-width="0" opacity="1"/><circle cx="1325" cy="505" r="18.2" fill="#cca27e" stroke="none" stroke-width="0" opacity="1"/><path d="M1308.2 498.7Q1319.4 481.2 1340.4 495.9Q1330.6 488.9 1308.2 498.7Z" fill="#5e5348" stroke="none" stroke-width="0" opacity="1" stroke-linecap="round" stroke-linejoin="round" /><circle cx="1319.4" cy="503.6" r="1.68" fill="#3b4d49" stroke="none" stroke-width="0" opacity="1"/><circle cx="1330.6" cy="503.6" r="1.68" fill="#3b4d49" stroke="none" stroke-width="0" opacity="1"/><circle cx="1315.2" cy="510.6" r="2.4499999999999997" fill="#c98672" stroke="none" stroke-width="0" opacity="0.22"/><circle cx="1334.8" cy="510.6" r="2.4499999999999997" fill="#c98672" stroke="none" stroke-width="0" opacity="0.22"/><path d="M1320.1 512.7Q1325 515.5 1329.9 512.7" fill="none" stroke="#79594d" stroke-width="1.1199999999999999" opacity="0.55" stroke-linecap="round" stroke-linejoin="round" /></g><g filter="url(#soft)" transform="rotate(-3 280.0 735.0)"><rect x="105" y="690" width="350" height="90" rx="5" fill="#e5d49d" stroke="none" stroke-width="0" opacity="1" /><path d="M117 711 Q245.0 702 441 710" fill="none" stroke="#aa8d69" stroke-width="1.3" opacity="0.25" stroke-linecap="round" stroke-linejoin="round" /><text x="280.0" y="745.8" fill="#394e4c" font-family="KaiTi,STKaiti,serif" font-size="24" font-weight="800" text-anchor="middle" opacity="1" >今天也要记得下班</text></g></g><rect width="1600" height="900" fill="url(#speck)" opacity=".55" pointer-events="none"/><rect width="1600" height="900" fill="url(#vignette)" pointer-events="none"/></svg>